Coordinates
version=1
nRows=14
nColumns=36
inDegrees=yes

Units are S.I. units (second, meters, Newtons, ...)
If the header above contains a line with 'inDegrees', this indicates whether rotational values are in degrees (yes) or radians (no).

endheader
time	pelvis_tilt	pelvis_list	pelvis_rotation	pelvis_tx	pelvis_ty	pelvis_tz	hip_flexion_r	hip_adduction_r	hip_rotation_r	knee_angle_r	knee_angle_r_beta	ankle_angle_r	subtalar_angle_r	mtp_angle_r	hip_flexion_l	hip_adduction_l	hip_rotation_l	knee_angle_l	knee_angle_l_beta	ankle_angle_l	subtalar_angle_l	mtp_angle_l	lumbar_extension	lumbar_bending	lumbar_rotation	arm_flex_r	arm_add_r	arm_rot_r	elbow_flex_r	pro_sup_r	arm_flex_l	arm_add_l	arm_rot_l	elbow_flex_l	pro_sup_l
     11.18333330	      4.83071462	    -11.56989226	      1.41555721	     -0.15026278	      0.99199175	     -0.08847686	     31.64656927	      4.74311579	      1.88095439	     95.65674831	      1.66952521	    -17.77703434	     -3.98895830	     -7.49999987	     -1.58242313	     -7.51298120	     -3.72114645	      9.01651105	      0.15736780	      6.92847520	    -13.03393344	     -7.49999987	    -18.23764814	     11.31818617	      4.88321198	     74.10492821	     11.31130458	     70.83659958	    123.10243246	     98.63438053	     55.15622512	     12.22745887	     56.04725480	    126.62782786	     78.85591456
     11.20000000	      5.01278472	    -11.85715811	      1.18584686	     -0.15043050	      0.99429057	     -0.08993351	     31.96166553	      5.02237268	      1.65980077	     95.79522862	      1.67194215	    -16.91980882	     -3.80168040	     -7.49999987	     -1.91945771	     -7.77359363	     -4.28564139	      8.87516311	      0.15490082	      7.49577818	    -12.04059754	     -7.49999987	    -18.51946344	     11.57293192	      4.52570321	     73.71197364	     11.30948022	     70.36775616	    122.68890291	     98.61980058	     55.58249792	     11.59865593	     55.67422408	    124.52136807	     79.13831284
     11.21666670	      4.96216058	    -11.93446942	      1.08383547	     -0.15141346	      0.99379274	     -0.09013487	     32.85394145	      5.01794904	      1.25245898	     96.25562249	      1.67997754	    -16.34397966	     -3.64891585	     -7.49999987	     -1.88520661	     -7.84127043	     -4.53143679	      8.83837552	      0.15425875	      7.33680167	    -11.85025773	     -7.49999987	    -18.59992089	     11.64607873	      4.57830301	     73.76358717	     11.22697575	     70.53368016	    122.40832353	     97.66376830	     55.61649928	     11.28864882	     55.51989699	    124.31256864	     78.50186101
     11.23333330	      4.87227677	    -12.07369674	      1.05763346	     -0.15332877	      0.99153465	     -0.08990154	     34.21580399	      5.14501633	      0.71887807	     97.11377528	      1.69495513	    -16.26759252	     -3.32006313	     -7.49999987	     -1.76184607	     -7.95710586	     -4.57415350	      8.81714179	      0.15388815	      6.96352802	    -11.84194606	     -7.49999987	    -18.59694223	     11.78547580	      4.28148507	     73.81033372	     11.52755707	     70.27022006	    122.28679175	     97.12075139	     55.78488093	     10.81161153	     54.92560359	    123.35403830	     77.97370197
     11.25000000	      5.03377305	    -12.12818104	      1.06859162	     -0.15011519	      0.99287926	     -0.09146663	     34.56857054	      5.22709037	      0.31980445	     97.43697000	      1.70059594	    -16.28310719	     -3.22396111	     -7.49999987	     -1.94088890	     -8.00374849	     -4.65991309	      8.89442301	      0.15523697	      6.91703831	    -11.77013446	     -7.49999987	    -18.76500334	     11.78872968	      4.27671084	     73.80467081	     11.49757185	     70.26285045	    122.20839009	     97.14149665	     55.71880353	     10.85822591	     54.92835486	    123.33539008	     77.99704533
     11.26666670	      5.31332121	    -12.24412302	      0.99890646	     -0.14944368	      0.99247405	     -0.09235118	     34.89863248	      5.33764584	      0.04897660	     97.78198158	      1.70661753	    -15.70374769	     -2.42542211	     -7.49999987	     -2.04186910	     -8.16890072	     -5.43183347	      9.33811356	      0.16298083	      7.64837690	    -10.58708419	     -7.49999987	    -18.90853106	     11.99900840	      4.37952875	     73.77622368	     11.65194546	     70.15829516	    121.70463863	     99.17896632	     55.37390952	     10.79161372	     54.18590455	    122.95412613	     80.49079797
     11.28333330	      5.67227301	    -12.18892414	      1.23215538	     -0.15022095	      0.99348275	     -0.09361687	     35.33959926	      5.18934671	     -0.38379867	     98.15415166	      1.71311312	    -15.05149788	     -2.16851505	     -7.49999987	     -2.12934433	     -8.10600571	     -5.32006999	      9.81325601	      0.17127363	      7.84523175	    -10.62272566	     -7.49999987	    -19.13623861	     12.02780169	      4.20569572	     73.60948053	     11.62271330	     70.15685057	    121.53922535	     98.50741918	     55.10154470	      9.92615536	     52.47587630	    121.71563271	     79.70684218
     11.30000000	      5.83678792	    -12.09829824	      1.21495806	     -0.14974477	      0.99283411	     -0.09415071	     35.96414565	      5.15356632	     -0.76571567	     98.43392046	      1.71799601	    -15.07224723	     -2.28187729	     -7.49999987	     -2.00105696	     -8.00748183	     -5.45025064	     10.38659143	      0.18128022	      7.93929006	    -10.85888385	     -7.49999987	    -19.16958308	     11.97251247	      4.11700264	     73.47707998	     11.73705961	     70.34082629	    121.53248236	     97.82365608	     54.86290524	      9.47172930	     51.34170003	    120.75797241	     78.91647194
     11.31666670	      6.33015400	    -12.20411874	      1.26275700	     -0.14912335	      0.99276239	     -0.09393368	     36.32166882	      5.35167802	     -1.35458295	     98.59135536	      1.72074377	    -14.90856328	     -2.66377982	     -7.49999987	     -2.16879297	     -8.19787962	     -5.92964400	     11.18472357	      0.19521025	      8.52990985	    -10.23953940	     -7.49999987	    -19.60407720	     12.12984070	      4.08207964	     73.55971249	     12.11297411	     70.30039580	    121.44555549	     98.79141513	     54.49433520	      9.03431358	     49.27649181	    119.42079297	     79.28748104
     11.33333330	      6.23404928	    -12.22273358	      1.11579662	     -0.14936324	      0.98932544	     -0.09489953	     37.45116294	      5.51003273	     -1.70553899	     98.79227190	      1.72425042	    -14.43638332	     -2.96269091	     -7.49999987	     -1.56692091	     -8.19701872	     -5.96667959	     12.20494082	      0.21301640	      8.63502857	    -11.09752484	     -7.49999987	    -19.51323812	     12.02844122	      4.12339152	     73.77854644	     12.27256691	     70.39194881	    122.01955293	     97.49621998	     54.09659743	      9.70528392	     49.55131957	    120.28752594	     78.38803902
     11.35000000	      6.26837810	    -12.17445722	      0.96140279	     -0.14893281	      0.98903138	     -0.09485286	     38.46002681	      5.60523683	     -1.96161435	     98.65612933	      1.72187428	    -14.25204361	     -3.42866176	     -7.49999987	     -1.12127764	     -8.19004328	     -6.40770263	     13.25051892	      0.23126518	      8.74785411	    -11.40213750	     -7.49999987	    -19.63592682	     11.88754744	      4.45140982	     74.15097014	     12.39288555	     70.55662725	    122.46674037	     95.73536549	     53.82658090	     10.31500821	     50.35967140	    121.82599314	     77.47743624
     11.36666670	      6.65054218	    -12.06116328	      1.15069622	     -0.15017407	      0.98818424	     -0.09553571	     39.10609930	      5.45468953	     -2.43661636	     98.23504860	      1.71452504	    -14.37995582	     -4.22649953	     -7.49999987	     -0.81221681	     -8.15086269	     -6.39123483	     14.58112155	      0.25448858	      9.18259316	    -11.70560753	     -7.49999987	    -20.11102249	     11.75842479	      4.50574876	     74.64840980	     12.46422667	     70.35093256	    122.26438549	     99.66282974	     54.10647144	     10.33788790	     50.33817841	    123.20093322	     80.17027541
     11.38333330	      6.99309043	    -11.79188879	      1.48953860	     -0.14964837	      0.98424164	     -0.09744511	     39.78912116	      5.06712941	     -2.84246370	     97.61721444	      1.70374180	    -14.94495230	     -4.98623153	     -7.49999987	     -0.32597784	     -7.86511815	     -6.07730444	     16.05023762	      0.28012949	      9.66552758	    -12.28816828	     -7.49999987	    -20.36076532	     11.59126664	      4.16880373	     74.69083732	     12.56317342	     70.55783596	    122.22245601	     97.53859055	     54.48372866	      9.76807773	     48.93460237	    120.76628461	     78.87802979
     11.40000000	      7.11141849	    -11.63994140	      1.75882762	     -0.15092536	      0.98250631	     -0.09644282	     40.31954142	      4.95756626	     -3.26559250	     96.33716335	      1.68140069	    -17.34145143	     -5.89936801	     -7.49999987	      0.53118597	     -7.77576078	     -5.77800840	     17.66375917	      0.30829076	     10.25567498	    -12.85135187	     -7.49999987	    -20.36066223	     11.28580323	      3.67667900	     74.69379675	     12.51712830	     70.64717732	    122.25658412	     97.97171387	     54.71166479	      9.55179956	     48.25453377	    118.61866774	     78.91740246
